<mxfile host="app.diagrams.net" agent="Mozilla/5.0 (Macintosh; Intel Mac OS X 10_15_7) AppleWebKit/537.36 (KHTML, like Gecko) Chrome/133.0.0.0 Safari/537.36 Edg/133.0.0.0" version="26.0.13">
  <diagram name="Page-1" id="CzUo8AgLHohT3MKHMLyN">
    <mxGraphModel>
      <root>
        <mxCell id="0" />
        <mxCell id="1" parent="0" />
        <UserObject label="" mermaidData="{&#xa;  &quot;data&quot;: &quot;gantt\n    title Project Timeline - 4 Weeks\n    dateFormat  DD-MM-YYYY\n    axisFormat %a %d\n    section Project Phases and Key Deliverables\n    Project Planning &amp; Research           :done,    taskA1, 01-01-2022, 03-01-2022\n    Schema Design (Database Structure)   :active,  taskA2, 02-01-2022, 04-01-2022\n    AWS RDS &amp; S3 Setup                    :active,  taskA3, 03-01-2022, 05-01-2022\n    Backend Development (Node.js, Prisma, MongoDbQL):done, taskA4, 04-01-2022, 10-01-2022\n    Frontend Development (React, Tailwind):done,     taskA5, 05-01-2022, 12-01-2022\n    Image Upload &amp; Processing Features    :done,     taskA6, 06-01-2022, 14-01-2022\n    CloudFront &amp; Performance Optimization :active,  taskA7, 07-01-2022, 16-01-2022\n    Final Testing &amp; Bug Fixes             :active,  taskA8, 10-01-2022, 18-01-2022\n    Final Presentation &amp; Submission       :active,  taskA9, 15-01-2022, 20-01-2022\n\n    section Milestones\n    Project Kickoff :milestone, done, 01-01-2022\n    Schema Ready    :milestone, done, 04-01-2022\n    Backend MVP Ready :milestone, active, 10-01-2022\n    Frontend UI Prototype :milestone, active, 12-01-2022\n    Image Upload Feature Complete :milestone, active, 14-01-2022\n    Performance Testing Done :milestone, active, 16-01-2022\n    Final Submission :milestone, active, 20-01-2022&quot;,&#xa;  &quot;config&quot;: {&#xa;    &quot;theme&quot;: &quot;neutral&quot;,&#xa;    &quot;arrowMarkerAbsolute&quot;: false,&#xa;    &quot;flowchart&quot;: {&#xa;      &quot;htmlLabels&quot;: false&#xa;    },&#xa;    &quot;sequence&quot;: {&#xa;      &quot;diagramMarginX&quot;: 50,&#xa;      &quot;diagramMarginY&quot;: 10,&#xa;      &quot;actorMargin&quot;: 50,&#xa;      &quot;width&quot;: 150,&#xa;      &quot;height&quot;: 65,&#xa;      &quot;boxMargin&quot;: 10,&#xa;      &quot;boxTextMargin&quot;: 5,&#xa;      &quot;noteMargin&quot;: 10,&#xa;      &quot;messageMargin&quot;: 35,&#xa;      &quot;mirrorActors&quot;: true,&#xa;      &quot;bottomMarginAdj&quot;: 1,&#xa;      &quot;useMaxWidth&quot;: true,&#xa;      &quot;rightAngles&quot;: false,&#xa;      &quot;showSequenceNumbers&quot;: false&#xa;    },&#xa;    &quot;gantt&quot;: {&#xa;      &quot;titleTopMargin&quot;: 25,&#xa;      &quot;barHeight&quot;: 20,&#xa;      &quot;barGap&quot;: 4,&#xa;      &quot;topPadding&quot;: 50,&#xa;      &quot;leftPadding&quot;: 75,&#xa;      &quot;gridLineStartPadding&quot;: 35,&#xa;      &quot;fontSize&quot;: 11,&#xa;      &quot;fontFamily&quot;: &quot;\&quot;Open-Sans\&quot;, \&quot;sans-serif\&quot;&quot;,&#xa;      &quot;numberSectionStyles&quot;: 4,&#xa;      &quot;axisFormat&quot;: &quot;%Y-%m-%d&quot;&#xa;    }&#xa;  }&#xa;}" templatePrompt=" Prompt for Draw.io Gantt Chart Title: &quot;Project Timeline - 4 Weeks&quot; X-Axis (Timeline): Days spanning 4 weeks Y-Axis (Tasks): Project Phases and Key Deliverables  Tasks &amp; Durations:  ������ Project Planning &amp; Research (Week 1) → Start Day 1 - End Day 3 ������ Schema Design (Database Structure) (Week 1) → Start Day 2 - End Day 4 ☁️ AWS RDS &amp; S3 Setup (Week 2) → Start Day 3 - End Day 5 ������️ BaMongoDbvelopment (Node.js, Prisma, PostgreSQL) (Week 2-3) → Start Day 4 - End Day 10 ������ Frontend Development (React, Tailwind) (Week 2-3) → Start Day 5 - End Day 12 ������️ Image Upload &amp; Processing Features (Week 3) → Start Day 6 - End Day 14 ⚡ CloudFront &amp; Performance Optimization (Week 3-4) → Start Day 7 - End Day 16 ������ Final Testing &amp; Bug Fixes (Week 4) → Start Day 10 - End Day 18 ������ Final Presentation &amp; Submission (Week 4) → Start Day 15 - End Day 20 Milestones:  ������ Project Kickoff → Day 1 ������ Schema Ready → Day 4 ������ Backend MVP Ready → Day 10 ������ Frontend UI Prototype → Day 12 ������️ Image Upload Feature Complete → Day 14 ⚡ Performance Testing Done → Day 16 ������ Final Submission → Day 20 Style Guide:  Use horizontal bars for each task. Mark milestones with diamonds or circles. Use color coding (e.g., Blue for Development, Green for Testing, Red for Milestones). Make the timeline readable and structured for easy tracking. (Gantt)" id="2">
          <mxCell style="shape=image;noLabel=1;verticalAlign=top;imageAspect=1;image=data:image/svg+xml,PHN2ZyBhcmlhLXJvbGVkZXNjcmlwdGlvbj0iZ2FudHQiIHJvbGU9ImdyYXBoaWNzLWRvY3VtZW50IGRvY3VtZW50IiBzdHlsZT0ibWF4LXdpZHRoOiAxOTA3cHg7IiB2aWV3Qm94PSIwIDAgMTkwNyA0ODQiIHhtbG5zPSJodHRwOi8vd3d3LnczLm9yZy8yMDAwL3N2ZyIgd2lkdGg9IjEwMCUiIGlkPSJnZU1lcm1haWRPdXRwdXQtMTczOTU3NTg1NTUzNCI+PHN0eWxlPiNnZU1lcm1haWRPdXRwdXQtMTczOTU3NTg1NTUzNHtmb250LWZhbWlseToidHJlYnVjaGV0IG1zIix2ZXJkYW5hLGFyaWFsLHNhbnMtc2VyaWY7Zm9udC1zaXplOjE2cHg7ZmlsbDojMDAwMDAwO30jZ2VNZXJtYWlkT3V0cHV0LTE3Mzk1NzU4NTU1MzQgLmVycm9yLWljb257ZmlsbDojNTUyMjIyO30jZ2VNZXJtYWlkT3V0cHV0LTE3Mzk1NzU4NTU1MzQgLmVycm9yLXRleHR7ZmlsbDojNTUyMjIyO3N0cm9rZTojNTUyMjIyO30jZ2VNZXJtYWlkT3V0cHV0LTE3Mzk1NzU4NTU1MzQgLmVkZ2UtdGhpY2tuZXNzLW5vcm1hbHtzdHJva2Utd2lkdGg6MXB4O30jZ2VNZXJtYWlkT3V0cHV0LTE3Mzk1NzU4NTU1MzQgLmVkZ2UtdGhpY2tuZXNzLXRoaWNre3N0cm9rZS13aWR0aDozLjVweDt9I2dlTWVybWFpZE91dHB1dC0xNzM5NTc1ODU1NTM0IC5lZGdlLXBhdHRlcm4tc29saWR7c3Ryb2tlLWRhc2hhcnJheTowO30jZ2VNZXJtYWlkT3V0cHV0LTE3Mzk1NzU4NTU1MzQgLmVkZ2UtdGhpY2tuZXNzLWludmlzaWJsZXtzdHJva2Utd2lkdGg6MDtmaWxsOm5vbmU7fSNnZU1lcm1haWRPdXRwdXQtMTczOTU3NTg1NTUzNCAuZWRnZS1wYXR0ZXJuLWRhc2hlZHtzdHJva2UtZGFzaGFycmF5OjM7fSNnZU1lcm1haWRPdXRwdXQtMTczOTU3NTg1NTUzNCAuZWRnZS1wYXR0ZXJuLWRvdHRlZHtzdHJva2UtZGFzaGFycmF5OjI7fSNnZU1lcm1haWRPdXRwdXQtMTczOTU3NTg1NTUzNCAubWFya2Vye2ZpbGw6IzY2NjtzdHJva2U6IzY2Njt9I2dlTWVybWFpZE91dHB1dC0xNzM5NTc1ODU1NTM0IC5tYXJrZXIuY3Jvc3N7c3Ryb2tlOiM2NjY7fSNnZU1lcm1haWRPdXRwdXQtMTczOTU3NTg1NTUzNCBzdmd7Zm9udC1mYW1pbHk6InRyZWJ1Y2hldCBtcyIsdmVyZGFuYSxhcmlhbCxzYW5zLXNlcmlmO2ZvbnQtc2l6ZToxNnB4O30jZ2VNZXJtYWlkT3V0cHV0LTE3Mzk1NzU4NTU1MzQgcHttYXJnaW46MDt9I2dlTWVybWFpZE91dHB1dC0xNzM5NTc1ODU1NTM0IC5tZXJtYWlkLW1haW4tZm9udHtmb250LWZhbWlseTp2YXIoLS1tZXJtYWlkLWZvbnQtZmFtaWx5LCAidHJlYnVjaGV0IG1zIiwgdmVyZGFuYSwgYXJpYWwsIHNhbnMtc2VyaWYpO30jZ2VNZXJtYWlkT3V0cHV0LTE3Mzk1NzU4NTU1MzQgLmV4Y2x1ZGUtcmFuZ2V7ZmlsbDojZWVlZWVlO30jZ2VNZXJtYWlkT3V0cHV0LTE3Mzk1NzU4NTU1MzQgLnNlY3Rpb257c3Ryb2tlOm5vbmU7b3BhY2l0eTowLjI7fSNnZU1lcm1haWRPdXRwdXQtMTczOTU3NTg1NTUzNCAuc2VjdGlvbjB7ZmlsbDpoc2woMCwgMCUsIDczLjkyMTU2ODYyNzUlKTt9I2dlTWVybWFpZE91dHB1dC0xNzM5NTc1ODU1NTM0IC5zZWN0aW9uMntmaWxsOmhzbCgwLCAwJSwgNzMuOTIxNTY4NjI3NSUpO30jZ2VNZXJtYWlkT3V0cHV0LTE3Mzk1NzU4NTU1MzQgLnNlY3Rpb24xLCNnZU1lcm1haWRPdXRwdXQtMTczOTU3NTg1NTUzNCAuc2VjdGlvbjN7ZmlsbDp3aGl0ZTtvcGFjaXR5OjAuMjt9I2dlTWVybWFpZE91dHB1dC0xNzM5NTc1ODU1NTM0IC5zZWN0aW9uVGl0bGUwe2ZpbGw6IzMzMzt9I2dlTWVybWFpZE91dHB1dC0xNzM5NTc1ODU1NTM0IC5zZWN0aW9uVGl0bGUxe2ZpbGw6IzMzMzt9I2dlTWVybWFpZE91dHB1dC0xNzM5NTc1ODU1NTM0IC5zZWN0aW9uVGl0bGUye2ZpbGw6IzMzMzt9I2dlTWVybWFpZE91dHB1dC0xNzM5NTc1ODU1NTM0IC5zZWN0aW9uVGl0bGUze2ZpbGw6IzMzMzt9I2dlTWVybWFpZE91dHB1dC0xNzM5NTc1ODU1NTM0IC5zZWN0aW9uVGl0bGV7dGV4dC1hbmNob3I6c3RhcnQ7Zm9udC1mYW1pbHk6dmFyKC0tbWVybWFpZC1mb250LWZhbWlseSwgInRyZWJ1Y2hldCBtcyIsIHZlcmRhbmEsIGFyaWFsLCBzYW5zLXNlcmlmKTt9I2dlTWVybWFpZE91dHB1dC0xNzM5NTc1ODU1NTM0IC5ncmlkIC50aWNre3N0cm9rZTpoc2woMCwgMCUsIDkwJSk7b3BhY2l0eTowLjg7c2hhcGUtcmVuZGVyaW5nOmNyaXNwRWRnZXM7fSNnZU1lcm1haWRPdXRwdXQtMTczOTU3NTg1NTUzNCAuZ3JpZCAudGljayB0ZXh0e2ZvbnQtZmFtaWx5OiJ0cmVidWNoZXQgbXMiLHZlcmRhbmEsYXJpYWwsc2Fucy1zZXJpZjtmaWxsOiMwMDAwMDA7fSNnZU1lcm1haWRPdXRwdXQtMTczOTU3NTg1NTUzNCAuZ3JpZCBwYXRoe3N0cm9rZS13aWR0aDowO30jZ2VNZXJtYWlkT3V0cHV0LTE3Mzk1NzU4NTU1MzQgLnRvZGF5e2ZpbGw6bm9uZTtzdHJva2U6I2Q0MjtzdHJva2Utd2lkdGg6MnB4O30jZ2VNZXJtYWlkT3V0cHV0LTE3Mzk1NzU4NTU1MzQgLnRhc2t7c3Ryb2tlLXdpZHRoOjI7fSNnZU1lcm1haWRPdXRwdXQtMTczOTU3NTg1NTUzNCAudGFza1RleHR7dGV4dC1hbmNob3I6bWlkZGxlO2ZvbnQtZmFtaWx5OnZhcigtLW1lcm1haWQtZm9udC1mYW1pbHksICJ0cmVidWNoZXQgbXMiLCB2ZXJkYW5hLCBhcmlhbCwgc2Fucy1zZXJpZik7fSNnZU1lcm1haWRPdXRwdXQtMTczOTU3NTg1NTUzNCAudGFza1RleHRPdXRzaWRlUmlnaHR7ZmlsbDojMzMzO3RleHQtYW5jaG9yOnN0YXJ0O2ZvbnQtZmFtaWx5OnZhcigtLW1lcm1haWQtZm9udC1mYW1pbHksICJ0cmVidWNoZXQgbXMiLCB2ZXJkYW5hLCBhcmlhbCwgc2Fucy1zZXJpZik7fSNnZU1lcm1haWRPdXRwdXQtMTczOTU3NTg1NTUzNCAudGFza1RleHRPdXRzaWRlTGVmdHtmaWxsOiMzMzM7dGV4dC1hbmNob3I6ZW5kO30jZ2VNZXJtYWlkT3V0cHV0LTE3Mzk1NzU4NTU1MzQgLnRhc2suY2xpY2thYmxle2N1cnNvcjpwb2ludGVyO30jZ2VNZXJtYWlkT3V0cHV0LTE3Mzk1NzU4NTU1MzQgLnRhc2tUZXh0LmNsaWNrYWJsZXtjdXJzb3I6cG9pbnRlcjtmaWxsOiMwMDMxNjMhaW1wb3J0YW50O2ZvbnQtd2VpZ2h0OmJvbGQ7fSNnZU1lcm1haWRPdXRwdXQtMTczOTU3NTg1NTUzNCAudGFza1RleHRPdXRzaWRlTGVmdC5jbGlja2FibGV7Y3Vyc29yOnBvaW50ZXI7ZmlsbDojMDAzMTYzIWltcG9ydGFudDtmb250LXdlaWdodDpib2xkO30jZ2VNZXJtYWlkT3V0cHV0LTE3Mzk1NzU4NTU1MzQgLnRhc2tUZXh0T3V0c2lkZVJpZ2h0LmNsaWNrYWJsZXtjdXJzb3I6cG9pbnRlcjtmaWxsOiMwMDMxNjMhaW1wb3J0YW50O2ZvbnQtd2VpZ2h0OmJvbGQ7fSNnZU1lcm1haWRPdXRwdXQtMTczOTU3NTg1NTUzNCAudGFza1RleHQwLCNnZU1lcm1haWRPdXRwdXQtMTczOTU3NTg1NTUzNCAudGFza1RleHQxLCNnZU1lcm1haWRPdXRwdXQtMTczOTU3NTg1NTUzNCAudGFza1RleHQyLCNnZU1lcm1haWRPdXRwdXQtMTczOTU3NTg1NTUzNCAudGFza1RleHQze2ZpbGw6d2hpdGU7fSNnZU1lcm1haWRPdXRwdXQtMTczOTU3NTg1NTUzNCAudGFzazAsI2dlTWVybWFpZE91dHB1dC0xNzM5NTc1ODU1NTM0IC50YXNrMSwjZ2VNZXJtYWlkT3V0cHV0LTE3Mzk1NzU4NTU1MzQgLnRhc2syLCNnZU1lcm1haWRPdXRwdXQtMTczOTU3NTg1NTUzNCAudGFzazN7ZmlsbDojNzA3MDcwO3N0cm9rZTpoc2woMCwgMCUsIDMzLjkyMTU2ODYyNzUlKTt9I2dlTWVybWFpZE91dHB1dC0xNzM5NTc1ODU1NTM0IC50YXNrVGV4dE91dHNpZGUwLCNnZU1lcm1haWRPdXRwdXQtMTczOTU3NTg1NTUzNCAudGFza1RleHRPdXRzaWRlMntmaWxsOiMzMzM7fSNnZU1lcm1haWRPdXRwdXQtMTczOTU3NTg1NTUzNCAudGFza1RleHRPdXRzaWRlMSwjZ2VNZXJtYWlkT3V0cHV0LTE3Mzk1NzU4NTU1MzQgLnRhc2tUZXh0T3V0c2lkZTN7ZmlsbDojMzMzO30jZ2VNZXJtYWlkT3V0cHV0LTE3Mzk1NzU4NTU1MzQgLmFjdGl2ZTAsI2dlTWVybWFpZE91dHB1dC0xNzM5NTc1ODU1NTM0IC5hY3RpdmUxLCNnZU1lcm1haWRPdXRwdXQtMTczOTU3NTg1NTUzNCAuYWN0aXZlMiwjZ2VNZXJtYWlkT3V0cHV0LTE3Mzk1NzU4NTU1MzQgLmFjdGl2ZTN7ZmlsbDojZWVlO3N0cm9rZTpoc2woMCwgMCUsIDMzLjkyMTU2ODYyNzUlKTt9I2dlTWVybWFpZE91dHB1dC0xNzM5NTc1ODU1NTM0IC5hY3RpdmVUZXh0MCwjZ2VNZXJtYWlkT3V0cHV0LTE3Mzk1NzU4NTU1MzQgLmFjdGl2ZVRleHQxLCNnZU1lcm1haWRPdXRwdXQtMTczOTU3NTg1NTUzNCAuYWN0aXZlVGV4dDIsI2dlTWVybWFpZE91dHB1dC0xNzM5NTc1ODU1NTM0IC5hY3RpdmVUZXh0M3tmaWxsOiMzMzMhaW1wb3J0YW50O30jZ2VNZXJtYWlkT3V0cHV0LTE3Mzk1NzU4NTU1MzQgLmRvbmUwLCNnZU1lcm1haWRPdXRwdXQtMTczOTU3NTg1NTUzNCAuZG9uZTEsI2dlTWVybWFpZE91dHB1dC0xNzM5NTc1ODU1NTM0IC5kb25lMiwjZ2VNZXJtYWlkT3V0cHV0LTE3Mzk1NzU4NTU1MzQgLmRvbmUze3N0cm9rZTojNjY2O2ZpbGw6I2JiYjtzdHJva2Utd2lkdGg6Mjt9I2dlTWVybWFpZE91dHB1dC0xNzM5NTc1ODU1NTM0IC5kb25lVGV4dDAsI2dlTWVybWFpZE91dHB1dC0xNzM5NTc1ODU1NTM0IC5kb25lVGV4dDEsI2dlTWVybWFpZE91dHB1dC0xNzM5NTc1ODU1NTM0IC5kb25lVGV4dDIsI2dlTWVybWFpZE91dHB1dC0xNzM5NTc1ODU1NTM0IC5kb25lVGV4dDN7ZmlsbDojMzMzIWltcG9ydGFudDt9I2dlTWVybWFpZE91dHB1dC0xNzM5NTc1ODU1NTM0IC5jcml0MCwjZ2VNZXJtYWlkT3V0cHV0LTE3Mzk1NzU4NTU1MzQgLmNyaXQxLCNnZU1lcm1haWRPdXRwdXQtMTczOTU3NTg1NTUzNCAuY3JpdDIsI2dlTWVybWFpZE91dHB1dC0xNzM5NTc1ODU1NTM0IC5jcml0M3tzdHJva2U6aHNsKDEwLjkwOTA5MDkwOTEsIDczLjMzMzMzMzMzMzMlLCA0MCUpO2ZpbGw6I2Q0MjtzdHJva2Utd2lkdGg6Mjt9I2dlTWVybWFpZE91dHB1dC0xNzM5NTc1ODU1NTM0IC5hY3RpdmVDcml0MCwjZ2VNZXJtYWlkT3V0cHV0LTE3Mzk1NzU4NTU1MzQgLmFjdGl2ZUNyaXQxLCNnZU1lcm1haWRPdXRwdXQtMTczOTU3NTg1NTUzNCAuYWN0aXZlQ3JpdDIsI2dlTWVybWFpZE91dHB1dC0xNzM5NTc1ODU1NTM0IC5hY3RpdmVDcml0M3tzdHJva2U6aHNsKDEwLjkwOTA5MDkwOTEsIDczLjMzMzMzMzMzMzMlLCA0MCUpO2ZpbGw6I2VlZTtzdHJva2Utd2lkdGg6Mjt9I2dlTWVybWFpZE91dHB1dC0xNzM5NTc1ODU1NTM0IC5kb25lQ3JpdDAsI2dlTWVybWFpZE91dHB1dC0xNzM5NTc1ODU1NTM0IC5kb25lQ3JpdDEsI2dlTWVybWFpZE91dHB1dC0xNzM5NTc1ODU1NTM0IC5kb25lQ3JpdDIsI2dlTWVybWFpZE91dHB1dC0xNzM5NTc1ODU1NTM0IC5kb25lQ3JpdDN7c3Ryb2tlOmhzbCgxMC45MDkwOTA5MDkxLCA3My4zMzMzMzMzMzMzJSwgNDAlKTtmaWxsOiNiYmI7c3Ryb2tlLXdpZHRoOjI7Y3Vyc29yOnBvaW50ZXI7c2hhcGUtcmVuZGVyaW5nOmNyaXNwRWRnZXM7fSNnZU1lcm1haWRPdXRwdXQtMTczOTU3NTg1NTUzNCAubWlsZXN0b25le3RyYW5zZm9ybTpyb3RhdGUoNDVkZWcpIHNjYWxlKDAuOCwwLjgpO30jZ2VNZXJtYWlkT3V0cHV0LTE3Mzk1NzU4NTU1MzQgLm1pbGVzdG9uZVRleHR7Zm9udC1zdHlsZTppdGFsaWM7fSNnZU1lcm1haWRPdXRwdXQtMTczOTU3NTg1NTUzNCAuZG9uZUNyaXRUZXh0MCwjZ2VNZXJtYWlkT3V0cHV0LTE3Mzk1NzU4NTU1MzQgLmRvbmVDcml0VGV4dDEsI2dlTWVybWFpZE91dHB1dC0xNzM5NTc1ODU1NTM0IC5kb25lQ3JpdFRleHQyLCNnZU1lcm1haWRPdXRwdXQtMTczOTU3NTg1NTUzNCAuZG9uZUNyaXRUZXh0M3tmaWxsOiMzMzMhaW1wb3J0YW50O30jZ2VNZXJtYWlkT3V0cHV0LTE3Mzk1NzU4NTU1MzQgLmFjdGl2ZUNyaXRUZXh0MCwjZ2VNZXJtYWlkT3V0cHV0LTE3Mzk1NzU4NTU1MzQgLmFjdGl2ZUNyaXRUZXh0MSwjZ2VNZXJtYWlkT3V0cHV0LTE3Mzk1NzU4NTU1MzQgLmFjdGl2ZUNyaXRUZXh0MiwjZ2VNZXJtYWlkT3V0cHV0LTE3Mzk1NzU4NTU1MzQgLmFjdGl2ZUNyaXRUZXh0M3tmaWxsOiMzMzMhaW1wb3J0YW50O30jZ2VNZXJtYWlkT3V0cHV0LTE3Mzk1NzU4NTU1MzQgLnRpdGxlVGV4dHt0ZXh0LWFuY2hvcjptaWRkbGU7Zm9udC1zaXplOjE4cHg7ZmlsbDojMzMzO2ZvbnQtZmFtaWx5OnZhcigtLW1lcm1haWQtZm9udC1mYW1pbHksICJ0cmVidWNoZXQgbXMiLCB2ZXJkYW5hLCBhcmlhbCwgc2Fucy1zZXJpZik7fSNnZU1lcm1haWRPdXRwdXQtMTczOTU3NTg1NTUzNCA6cm9vdHstLW1lcm1haWQtZm9udC1mYW1pbHk6InRyZWJ1Y2hldCBtcyIsdmVyZGFuYSxhcmlhbCxzYW5zLXNlcmlmO308L3N0eWxlPjxnPjwvZz48ZyB0ZXh0LWFuY2hvcj0ibWlkZGxlIiBmb250LWZhbWlseT0ic2Fucy1zZXJpZiIgZm9udC1zaXplPSIxMCIgZmlsbD0ibm9uZSIgdHJhbnNmb3JtPSJ0cmFuc2xhdGUoNzUsIDQzNCkiIGNsYXNzPSJncmlkIj48cGF0aCBkPSJNMC41LC0zOTlWMC41SDE3NTcuNVYtMzk5IiBzdHJva2U9ImN1cnJlbnRDb2xvciIgY2xhc3M9ImRvbWFpbiI+PC9wYXRoPjxnIHRyYW5zZm9ybT0idHJhbnNsYXRlKDAuNSwwKSIgb3BhY2l0eT0iMSIgY2xhc3M9InRpY2siPjxsaW5lIHkyPSItMzk5IiBzdHJva2U9ImN1cnJlbnRDb2xvciI+PC9saW5lPjx0ZXh0IHN0eWxlPSJ0ZXh0LWFuY2hvcjogbWlkZGxlOyIgZm9udC1zaXplPSIxMCIgc3Ryb2tlPSJub25lIiBkeT0iMWVtIiB5PSIzIiBmaWxsPSIjMDAwIj5TYXQgMDE8L3RleHQ+PC9nPjxnIHRyYW5zZm9ybT0idHJhbnNsYXRlKDE4NS41LDApIiBvcGFjaXR5PSIxIiBjbGFzcz0idGljayI+PGxpbmUgeTI9Ii0zOTkiIHN0cm9rZT0iY3VycmVudENvbG9yIj48L2xpbmU+PHRleHQgc3R5bGU9InRleHQtYW5jaG9yOiBtaWRkbGU7IiBmb250LXNpemU9IjEwIiBzdHJva2U9Im5vbmUiIGR5PSIxZW0iIHk9IjMiIGZpbGw9IiMwMDAiPk1vbiAwMzwvdGV4dD48L2c+PGcgdHJhbnNmb3JtPSJ0cmFuc2xhdGUoMzcwLjUsMCkiIG9wYWNpdHk9IjEiIGNsYXNzPSJ0aWNrIj48bGluZSB5Mj0iLTM5OSIgc3Ryb2tlPSJjdXJyZW50Q29sb3IiPjwvbGluZT48dGV4dCBzdHlsZT0idGV4dC1hbmNob3I6IG1pZGRsZTsiIGZvbnQtc2l6ZT0iMTAiIHN0cm9rZT0ibm9uZSIgZHk9IjFlbSIgeT0iMyIgZmlsbD0iIzAwMCI+V2VkIDA1PC90ZXh0PjwvZz48ZyB0cmFuc2Zvcm09InRyYW5zbGF0ZSg1NTUuNSwwKSIgb3BhY2l0eT0iMSIgY2xhc3M9InRpY2siPjxsaW5lIHkyPSItMzk5IiBzdHJva2U9ImN1cnJlbnRDb2xvciI+PC9saW5lPjx0ZXh0IHN0eWxlPSJ0ZXh0LWFuY2hvcjogbWlkZGxlOyIgZm9udC1zaXplPSIxMCIgc3Ryb2tlPSJub25lIiBkeT0iMWVtIiB5PSIzIiBmaWxsPSIjMDAwIj5GcmkgMDc8L3RleHQ+PC9nPjxnIHRyYW5zZm9ybT0idHJhbnNsYXRlKDc0MC41LDApIiBvcGFjaXR5PSIxIiBjbGFzcz0idGljayI+PGxpbmUgeTI9Ii0zOTkiIHN0cm9rZT0iY3VycmVudENvbG9yIj48L2xpbmU+PHRleHQgc3R5bGU9InRleHQtYW5jaG9yOiBtaWRkbGU7IiBmb250LXNpemU9IjEwIiBzdHJva2U9Im5vbmUiIGR5PSIxZW0iIHk9IjMiIGZpbGw9IiMwMDAiPlN1biAwOTwvdGV4dD48L2c+PGcgdHJhbnNmb3JtPSJ0cmFuc2xhdGUoOTI1LjUsMCkiIG9wYWNpdHk9IjEiIGNsYXNzPSJ0aWNrIj48bGluZSB5Mj0iLTM5OSIgc3Ryb2tlPSJjdXJyZW50Q29sb3IiPjwvbGluZT48dGV4dCBzdHlsZT0idGV4dC1hbmNob3I6IG1pZGRsZTsiIGZvbnQtc2l6ZT0iMTAiIHN0cm9rZT0ibm9uZSIgZHk9IjFlbSIgeT0iMyIgZmlsbD0iIzAwMCI+VHVlIDExPC90ZXh0PjwvZz48ZyB0cmFuc2Zvcm09InRyYW5zbGF0ZSgxMTEwLjUsMCkiIG9wYWNpdHk9IjEiIGNsYXNzPSJ0aWNrIj48bGluZSB5Mj0iLTM5OSIgc3Ryb2tlPSJjdXJyZW50Q29sb3IiPjwvbGluZT48dGV4dCBzdHlsZT0idGV4dC1hbmNob3I6IG1pZGRsZTsiIGZvbnQtc2l6ZT0iMTAiIHN0cm9rZT0ibm9uZSIgZHk9IjFlbSIgeT0iMyIgZmlsbD0iIzAwMCI+VGh1IDEzPC90ZXh0PjwvZz48ZyB0cmFuc2Zvcm09InRyYW5zbGF0ZSgxMjk1LjUsMCkiIG9wYWNpdHk9IjEiIGNsYXNzPSJ0aWNrIj48bGluZSB5Mj0iLTM5OSIgc3Ryb2tlPSJjdXJyZW50Q29sb3IiPjwvbGluZT48dGV4dCBzdHlsZT0idGV4dC1hbmNob3I6IG1pZGRsZTsiIGZvbnQtc2l6ZT0iMTAiIHN0cm9rZT0ibm9uZSIgZHk9IjFlbSIgeT0iMyIgZmlsbD0iIzAwMCI+U2F0IDE1PC90ZXh0PjwvZz48ZyB0cmFuc2Zvcm09InRyYW5zbGF0ZSgxNDgwLjUsMCkiIG9wYWNpdHk9IjEiIGNsYXNzPSJ0aWNrIj48bGluZSB5Mj0iLTM5OSIgc3Ryb2tlPSJjdXJyZW50Q29sb3IiPjwvbGluZT48dGV4dCBzdHlsZT0idGV4dC1hbmNob3I6IG1pZGRsZTsiIGZvbnQtc2l6ZT0iMTAiIHN0cm9rZT0ibm9uZSIgZHk9IjFlbSIgeT0iMyIgZmlsbD0iIzAwMCI+TW9uIDE3PC90ZXh0PjwvZz48ZyB0cmFuc2Zvcm09InRyYW5zbGF0ZSgxNjY1LjUsMCkiIG9wYWNpdHk9IjEiIGNsYXNzPSJ0aWNrIj48bGluZSB5Mj0iLTM5OSIgc3Ryb2tlPSJjdXJyZW50Q29sb3IiPjwvbGluZT48dGV4dCBzdHlsZT0idGV4dC1hbmNob3I6IG1pZGRsZTsiIGZvbnQtc2l6ZT0iMTAiIHN0cm9rZT0ibm9uZSIgZHk9IjFlbSIgeT0iMyIgZmlsbD0iIzAwMCI+V2VkIDE5PC90ZXh0PjwvZz48L2c+PGc+PHJlY3QgY2xhc3M9InNlY3Rpb24gc2VjdGlvbjAiIGhlaWdodD0iMjQiIHdpZHRoPSIxODY5LjUiIHk9IjQ4IiB4PSIwIj48L3JlY3Q+PHJlY3QgY2xhc3M9InNlY3Rpb24gc2VjdGlvbjEiIGhlaWdodD0iMjQiIHdpZHRoPSIxODY5LjUiIHk9IjI4OCIgeD0iMCI+PC9yZWN0PjxyZWN0IGNsYXNzPSJzZWN0aW9uIHNlY3Rpb24wIiBoZWlnaHQ9IjI0IiB3aWR0aD0iMTg2OS41IiB5PSI3MiIgeD0iMCI+PC9yZWN0PjxyZWN0IGNsYXNzPSJzZWN0aW9uIHNlY3Rpb24wIiBoZWlnaHQ9IjI0IiB3aWR0aD0iMTg2OS41IiB5PSI5NiIgeD0iMCI+PC9yZWN0PjxyZWN0IGNsYXNzPSJzZWN0aW9uIHNlY3Rpb24wIiBoZWlnaHQ9IjI0IiB3aWR0aD0iMTg2OS41IiB5PSIxMjAiIHg9IjAiPjwvcmVjdD48cmVjdCBjbGFzcz0ic2VjdGlvbiBzZWN0aW9uMSIgaGVpZ2h0PSIyNCIgd2lkdGg9IjE4NjkuNSIgeT0iMzEyIiB4PSIwIj48L3JlY3Q+PHJlY3QgY2xhc3M9InNlY3Rpb24gc2VjdGlvbjAiIGhlaWdodD0iMjQiIHdpZHRoPSIxODY5LjUiIHk9IjE0NCIgeD0iMCI+PC9yZWN0PjxyZWN0IGNsYXNzPSJzZWN0aW9uIHNlY3Rpb24wIiBoZWlnaHQ9IjI0IiB3aWR0aD0iMTg2OS41IiB5PSIxNjgiIHg9IjAiPjwvcmVjdD48cmVjdCBjbGFzcz0ic2VjdGlvbiBzZWN0aW9uMCIgaGVpZ2h0PSIyNCIgd2lkdGg9IjE4NjkuNSIgeT0iMTkyIiB4PSIwIj48L3JlY3Q+PHJlY3QgY2xhc3M9InNlY3Rpb24gc2VjdGlvbjAiIGhlaWdodD0iMjQiIHdpZHRoPSIxODY5LjUiIHk9IjIxNiIgeD0iMCI+PC9yZWN0PjxyZWN0IGNsYXNzPSJzZWN0aW9uIHNlY3Rpb24xIiBoZWlnaHQ9IjI0IiB3aWR0aD0iMTg2OS41IiB5PSIzMzYiIHg9IjAiPjwvcmVjdD48cmVjdCBjbGFzcz0ic2VjdGlvbiBzZWN0aW9uMSIgaGVpZ2h0PSIyNCIgd2lkdGg9IjE4NjkuNSIgeT0iMzYwIiB4PSIwIj48L3JlY3Q+PHJlY3QgY2xhc3M9InNlY3Rpb24gc2VjdGlvbjEiIGhlaWdodD0iMjQiIHdpZHRoPSIxODY5LjUiIHk9IjM4NCIgeD0iMCI+PC9yZWN0PjxyZWN0IGNsYXNzPSJzZWN0aW9uIHNlY3Rpb24wIiBoZWlnaHQ9IjI0IiB3aWR0aD0iMTg2OS41IiB5PSIyNDAiIHg9IjAiPjwvcmVjdD48cmVjdCBjbGFzcz0ic2VjdGlvbiBzZWN0aW9uMSIgaGVpZ2h0PSIyNCIgd2lkdGg9IjE4NjkuNSIgeT0iNDA4IiB4PSIwIj48L3JlY3Q+PHJlY3QgY2xhc3M9InNlY3Rpb24gc2VjdGlvbjEiIGhlaWdodD0iMjQiIHdpZHRoPSIxODY5LjUiIHk9IjI2NCIgeD0iMCI+PC9yZWN0PjwvZz48Zz48cmVjdCBjbGFzcz0idGFzayBkb25lMCIgdHJhbnNmb3JtLW9yaWdpbj0iMTY3LjVweCA2MHB4IiBoZWlnaHQ9IjIwIiB3aWR0aD0iMTg1IiB5PSI1MCIgeD0iNzUiIHJ5PSIzIiByeD0iMyIgaWQ9InRhc2tBMSI+PC9yZWN0PjxyZWN0IGNsYXNzPSJ0YXNrIG1pbGVzdG9uZSAgZG9uZTEiIHRyYW5zZm9ybS1vcmlnaW49IjIxMy41cHggMzAwcHgiIGhlaWdodD0iMjAiIHdpZHRoPSIyMCIgeT0iMjkwIiB4PSIyMDMuNSIgcnk9IjMiIHJ4PSIzIiBpZD0idGFzazIiPjwvcmVjdD48cmVjdCBjbGFzcz0idGFzayBhY3RpdmUwIiB0cmFuc2Zvcm0tb3JpZ2luPSIyNTkuNXB4IDg0cHgiIGhlaWdodD0iMjAiIHdpZHRoPSIxODUiIHk9Ijc0IiB4PSIxNjciIHJ5PSIzIiByeD0iMyIgaWQ9InRhc2tBMiI+PC9yZWN0PjxyZWN0IGNsYXNzPSJ0YXNrIGFjdGl2ZTAiIHRyYW5zZm9ybS1vcmlnaW49IjM1Mi41cHggMTA4cHgiIGhlaWdodD0iMjAiIHdpZHRoPSIxODUiIHk9Ijk4IiB4PSIyNjAiIHJ5PSIzIiByeD0iMyIgaWQ9InRhc2tBMyI+PC9yZWN0PjxyZWN0IGNsYXNzPSJ0YXNrIGRvbmUwIiB0cmFuc2Zvcm0tb3JpZ2luPSI2MjkuNXB4IDEzMnB4IiBoZWlnaHQ9IjIwIiB3aWR0aD0iNTU1IiB5PSIxMjIiIHg9IjM1MiIgcnk9IjMiIHJ4PSIzIiBpZD0idGFza0E0Ij48L3JlY3Q+PHJlY3QgY2xhc3M9InRhc2sgbWlsZXN0b25lICBhY3RpdmUxIiB0cmFuc2Zvcm0tb3JpZ2luPSI2MjkuNXB4IDMyNHB4IiBoZWlnaHQ9IjIwIiB3aWR0aD0iMjAiIHk9IjMxNCIgeD0iNjE5LjUiIHJ5PSIzIiByeD0iMyIgaWQ9InRhc2szIj48L3JlY3Q+PHJlY3QgY2xhc3M9InRhc2sgZG9uZTAiIHRyYW5zZm9ybS1vcmlnaW49Ijc2OC41cHggMTU2cHgiIGhlaWdodD0iMjAiIHdpZHRoPSI2NDciIHk9IjE0NiIgeD0iNDQ1IiByeT0iMyIgcng9IjMiIGlkPSJ0YXNrQTUiPjwvcmVjdD48cmVjdCBjbGFzcz0idGFzayBkb25lMCIgdHJhbnNmb3JtLW9yaWdpbj0iOTA3cHggMTgwcHgiIGhlaWdodD0iMjAiIHdpZHRoPSI3NDAiIHk9IjE3MCIgeD0iNTM3IiByeT0iMyIgcng9IjMiIGlkPSJ0YXNrQTYiPjwvcmVjdD48cmVjdCBjbGFzcz0idGFzayBhY3RpdmUwIiB0cmFuc2Zvcm0tb3JpZ2luPSIxMDQ2cHggMjA0cHgiIGhlaWdodD0iMjAiIHdpZHRoPSI4MzIiIHk9IjE5NCIgeD0iNjMwIiByeT0iMyIgcng9IjMiIGlkPSJ0YXNrQTciPjwvcmVjdD48cmVjdCBjbGFzcz0idGFzayBhY3RpdmUwIiB0cmFuc2Zvcm0tb3JpZ2luPSIxMjc3cHggMjI4cHgiIGhlaWdodD0iMjAiIHdpZHRoPSI3NDAiIHk9IjIxOCIgeD0iOTA3IiByeT0iMyIgcng9IjMiIGlkPSJ0YXNrQTgiPjwvcmVjdD48cmVjdCBjbGFzcz0idGFzayBtaWxlc3RvbmUgIGFjdGl2ZTEiIHRyYW5zZm9ybS1vcmlnaW49Ijk5OS41cHggMzQ4cHgiIGhlaWdodD0iMjAiIHdpZHRoPSIyMCIgeT0iMzM4IiB4PSI5ODkuNSIgcnk9IjMiIHJ4PSIzIiBpZD0idGFzazQiPjwvcmVjdD48cmVjdCBjbGFzcz0idGFzayBtaWxlc3RvbmUgIGFjdGl2ZTEiIHRyYW5zZm9ybS1vcmlnaW49IjExODQuNXB4IDM3MnB4IiBoZWlnaHQ9IjIwIiB3aWR0aD0iMjAiIHk9IjM2MiIgeD0iMTE3NC41IiByeT0iMyIgcng9IjMiIGlkPSJ0YXNrNSI+PC9yZWN0PjxyZWN0IGNsYXNzPSJ0YXNrIG1pbGVzdG9uZSAgYWN0aXZlMSIgdHJhbnNmb3JtLW9yaWdpbj0iMTM2OS41cHggMzk2cHgiIGhlaWdodD0iMjAiIHdpZHRoPSIyMCIgeT0iMzg2IiB4PSIxMzU5LjUiIHJ5PSIzIiByeD0iMyIgaWQ9InRhc2s2Ij48L3JlY3Q+PHJlY3QgY2xhc3M9InRhc2sgYWN0aXZlMCIgdHJhbnNmb3JtLW9yaWdpbj0iMTYwMXB4IDI1MnB4IiBoZWlnaHQ9IjIwIiB3aWR0aD0iNDYyIiB5PSIyNDIiIHg9IjEzNzAiIHJ5PSIzIiByeD0iMyIgaWQ9InRhc2tBOSI+PC9yZWN0PjxyZWN0IGNsYXNzPSJ0YXNrIG1pbGVzdG9uZSAgYWN0aXZlMSIgdHJhbnNmb3JtLW9yaWdpbj0iMTY0N3B4IDQyMHB4IiBoZWlnaHQ9IjIwIiB3aWR0aD0iMjAiIHk9IjQxMCIgeD0iMTYzNyIgcnk9IjMiIHJ4PSIzIiBpZD0idGFzazciPjwvcmVjdD48cmVjdCBjbGFzcz0idGFzayBtaWxlc3RvbmUgIGRvbmUxIiB0cmFuc2Zvcm0tb3JpZ2luPSI5NTMuNXB4IDI3NnB4IiBoZWlnaHQ9IjIwIiB3aWR0aD0iMjAiIHk9IjI2NiIgeD0iOTQzLjUiIHJ5PSIzIiByeD0iMyIgaWQ9InRhc2sxIj48L3JlY3Q+PHRleHQgY2xhc3M9InRhc2tUZXh0IHRhc2tUZXh0MCAgZG9uZVRleHQwIHdpZHRoLTEzOS4xMjUiIHk9IjYzLjUiIHg9IjE2Ny41IiBmb250LXNpemU9IjExIiBpZD0idGFza0ExLXRleHQiPlByb2plY3QgUGxhbm5pbmcgJmFtcDsgUmVzZWFyY2ggICAgICAgICAgIDwvdGV4dD48dGV4dCBjbGFzcz0idGFza1RleHRPdXRzaWRlUmlnaHQgdGFza1RleHRPdXRzaWRlMSAgZG9uZVRleHQxIG1pbGVzdG9uZVRleHQgd2lkdGgtNzAuMjY1NjI1IiB5PSIzMDMuNSIgeD0iMjI4LjUiIGZvbnQtc2l6ZT0iMTEiIGlkPSJ0YXNrMi10ZXh0Ij5TY2hlbWEgUmVhZHkgICAgPC90ZXh0Pjx0ZXh0IGNsYXNzPSJ0YXNrVGV4dCB0YXNrVGV4dDAgYWN0aXZlVGV4dDAgd2lkdGgtMTc4LjYwOTM3NSIgeT0iODcuNSIgeD0iMjU5LjUiIGZvbnQtc2l6ZT0iMTEiIGlkPSJ0YXNrQTItdGV4dCI+U2NoZW1hIERlc2lnbiAoRGF0YWJhc2UgU3RydWN0dXJlKSAgIDwvdGV4dD48dGV4dCBjbGFzcz0idGFza1RleHQgdGFza1RleHQwIGFjdGl2ZVRleHQwIHdpZHRoLTk4LjUiIHk9IjExMS41IiB4PSIzNTIuNSIgZm9udC1zaXplPSIxMSIgaWQ9InRhc2tBMy10ZXh0Ij5BV1MgUkRTICZhbXA7IFMzIFNldHVwICAgICAgICAgICAgICAgICAgICA8L3RleHQ+PHRleHQgY2xhc3M9InRhc2tUZXh0IHRhc2tUZXh0MCAgZG9uZVRleHQwIHdpZHRoLTI1OS44NTkzNzUiIHk9IjEzNS41IiB4PSI2MjkuNSIgZm9udC1zaXplPSIxMSIgaWQ9InRhc2tBNC10ZXh0Ij5CYWNrZW5kIERldmVsb3BtZW50IChOb2RlLmpzLCBQcmlzbWEsIFBvc3RncmVTUUwpPC90ZXh0Pjx0ZXh0IGNsYXNzPSJ0YXNrVGV4dE91dHNpZGVSaWdodCB0YXNrVGV4dE91dHNpZGUxIGFjdGl2ZVRleHQxIG1pbGVzdG9uZVRleHQgd2lkdGgtOTcuMjY1NjI1IiB5PSIzMjcuNSIgeD0iNjQ0LjUiIGZvbnQtc2l6ZT0iMTEiIGlkPSJ0YXNrMy10ZXh0Ij5CYWNrZW5kIE1WUCBSZWFkeSA8L3RleHQ+PHRleHQgY2xhc3M9InRhc2tUZXh0IHRhc2tUZXh0MCAgZG9uZVRleHQwIHdpZHRoLTE5OS40MjE4NzUiIHk9IjE1OS41IiB4PSI3NjguNSIgZm9udC1zaXplPSIxMSIgaWQ9InRhc2tBNS10ZXh0Ij5Gcm9udGVuZCBEZXZlbG9wbWVudCAoUmVhY3QsIFRhaWx3aW5kKTwvdGV4dD48dGV4dCBjbGFzcz0idGFza1RleHQgdGFza1RleHQwICBkb25lVGV4dDAgd2lkdGgtMTc4LjMxMjUiIHk9IjE4My41IiB4PSI5MDciIGZvbnQtc2l6ZT0iMTEiIGlkPSJ0YXNrQTYtdGV4dCI+SW1hZ2UgVXBsb2FkICZhbXA7IFByb2Nlc3NpbmcgRmVhdHVyZXMgICAgPC90ZXh0Pjx0ZXh0IGNsYXNzPSJ0YXNrVGV4dCB0YXNrVGV4dDAgYWN0aXZlVGV4dDAgd2lkdGgtMTk4LjEyNSIgeT0iMjA3LjUiIHg9IjEwNDYiIGZvbnQtc2l6ZT0iMTEiIGlkPSJ0YXNrQTctdGV4dCI+Q2xvdWRGcm9udCAmYW1wOyBQZXJmb3JtYW5jZSBPcHRpbWl6YXRpb24gPC90ZXh0Pjx0ZXh0IGNsYXNzPSJ0YXNrVGV4dCB0YXNrVGV4dDAgYWN0aXZlVGV4dDAgd2lkdGgtMTIxLjkwNjI1IiB5PSIyMzEuNSIgeD0iMTI3NyIgZm9udC1zaXplPSIxMSIgaWQ9InRhc2tBOC10ZXh0Ij5GaW5hbCBUZXN0aW5nICZhbXA7IEJ1ZyBGaXhlcyAgICAgICAgICAgICA8L3RleHQ+PHRleHQgY2xhc3M9InRhc2tUZXh0T3V0c2lkZVJpZ2h0IHRhc2tUZXh0T3V0c2lkZTEgYWN0aXZlVGV4dDEgbWlsZXN0b25lVGV4dCB3aWR0aC0xMDkuMjY1NjI1IiB5PSIzNTEuNSIgeD0iMTAxNC41IiBmb250LXNpemU9IjExIiBpZD0idGFzazQtdGV4dCI+RnJvbnRlbmQgVUkgUHJvdG90eXBlIDwvdGV4dD48dGV4dCBjbGFzcz0idGFza1RleHRPdXRzaWRlUmlnaHQgdGFza1RleHRPdXRzaWRlMSBhY3RpdmVUZXh0MSBtaWxlc3RvbmVUZXh0IHdpZHRoLTE1OS4yOTY4NzUiIHk9IjM3NS41IiB4PSIxMTk5LjUiIGZvbnQtc2l6ZT0iMTEiIGlkPSJ0YXNrNS10ZXh0Ij5JbWFnZSBVcGxvYWQgRmVhdHVyZSBDb21wbGV0ZSA8L3RleHQ+PHRleHQgY2xhc3M9InRhc2tUZXh0T3V0c2lkZVJpZ2h0IHRhc2tUZXh0T3V0c2lkZTEgYWN0aXZlVGV4dDEgbWlsZXN0b25lVGV4dCB3aWR0aC0xMjguMDkzNzUiIHk9IjM5OS41IiB4PSIxMzg0LjUiIGZvbnQtc2l6ZT0iMTEiIGlkPSJ0YXNrNi10ZXh0Ij5QZXJmb3JtYW5jZSBUZXN0aW5nIERvbmUgPC90ZXh0Pjx0ZXh0IGNsYXNzPSJ0YXNrVGV4dCB0YXNrVGV4dDAgYWN0aXZlVGV4dDAgd2lkdGgtMTU3LjIxODc1IiB5PSIyNTUuNSIgeD0iMTYwMSIgZm9udC1zaXplPSIxMSIgaWQ9InRhc2tBOS10ZXh0Ij5GaW5hbCBQcmVzZW50YXRpb24gJmFtcDsgU3VibWlzc2lvbiAgICAgICA8L3RleHQ+PHRleHQgY2xhc3M9InRhc2tUZXh0T3V0c2lkZVJpZ2h0IHRhc2tUZXh0T3V0c2lkZTEgYWN0aXZlVGV4dDEgbWlsZXN0b25lVGV4dCB3aWR0aC04MC45MjE4NzUiIHk9IjQyMy41IiB4PSIxNjYyIiBmb250LXNpemU9IjExIiBpZD0idGFzazctdGV4dCI+RmluYWwgU3VibWlzc2lvbiA8L3RleHQ+PHRleHQgY2xhc3M9InRhc2tUZXh0T3V0c2lkZUxlZnQgdGFza1RleHRPdXRzaWRlMSAgZG9uZVRleHQxIG1pbGVzdG9uZVRleHQiIHk9IjI3OS41IiB4PSI5NjguNSIgZm9udC1zaXplPSIxMSIgaWQ9InRhc2sxLXRleHQiPlByb2plY3QgS2lja29mZiA8L3RleHQ+PC9nPjxnPjx0ZXh0IGNsYXNzPSJzZWN0aW9uVGl0bGUgc2VjdGlvblRpdGxlMCIgZm9udC1zaXplPSIxMSIgeT0iMTU4IiB4PSIxMCIgZHk9IjBlbSI+PHRzcGFuIHg9IjEwIiBhbGlnbm1lbnQtYmFzZWxpbmU9ImNlbnRyYWwiPlByb2plY3QgUGhhc2VzIGFuZCBLZXkgRGVsaXZlcmFibGVzPC90c3Bhbj48L3RleHQ+PHRleHQgY2xhc3M9InNlY3Rpb25UaXRsZSBzZWN0aW9uVGl0bGUxIiBmb250LXNpemU9IjExIiB5PSIzNTAiIHg9IjEwIiBkeT0iMGVtIj48dHNwYW4geD0iMTAiIGFsaWdubWVudC1iYXNlbGluZT0iY2VudHJhbCI+TWlsZXN0b25lczwvdHNwYW4+PC90ZXh0PjwvZz48ZyBjbGFzcz0idG9kYXkiPjxsaW5lIGNsYXNzPSJ0b2RheSIgeTI9IjQ1OSIgeTE9IjI1IiB4Mj0iMTA1NTU1IiB4MT0iMTA1NTU1Ij48L2xpbmU+PC9nPjx0ZXh0IGNsYXNzPSJ0aXRsZVRleHQiIHk9IjI1IiB4PSI5NTMuNSI+UHJvamVjdCBUaW1lbGluZSAtIDQgV2Vla3M8L3RleHQ+PC9zdmc+;" vertex="1" parent="1">
            <mxGeometry width="1907" height="484" as="geometry" />
          </mxCell>
        </UserObject>
      </root>
    </mxGraphModel>
  </diagram>
</mxfile>
